solid Untitled-5874df0a
facet normal 0.0 0.0 -1.0
  outer loop
    vertex 64.26050949990507 78.49832491167658 0.0
    vertex 64.26050949990507 75.91013446065136 0.0
    vertex 64.09013863135041 77.20422968616397 0.0
  endloop
endfacet
facet normal 0.0 0.0 -1.0
  outer loop
    vertex 64.26050949990507 75.91013446065136 0.0
    vertex 64.26050949990507 78.49832491167658 0.0
    vertex 64.76001161242823 79.70422968616397 0.0
  endloop
endfacet
facet normal 0.0 0.0 -1.0
  outer loop
    vertex 64.26050949990507 75.91013446065136 0.0
    vertex 64.76001161242823 79.70422968616397 0.0
    vertex 64.76001161242823 74.70422968616397 0.0
  endloop
endfacet
facet normal 0.0 0.0 -1.0
  outer loop
    vertex 64.76001161242823 74.70422968616397 0.0
    vertex 64.76001161242823 79.70422968616397 0.0
    vertex 65.55460472541769 80.73976359209671 0.0
  endloop
endfacet
facet normal 0.0 0.0 -1.0
  outer loop
    vertex 64.76001161242823 74.70422968616397 0.0
    vertex 65.55460472541769 80.73976359209671 0.0
    vertex 65.55460472541769 73.66869578023123 0.0
  endloop
endfacet
facet normal 0.0 0.0 -1.0
  outer loop
    vertex 65.55460472541769 73.66869578023123 0.0
    vertex 65.55460472541769 80.73976359209671 0.0
    vertex 66.59013863135041 81.53435670508617 0.0
  endloop
endfacet
facet normal 0.0 0.0 -1.0
  outer loop
    vertex 65.55460472541769 73.66869578023123 0.0
    vertex 66.59013863135041 81.53435670508617 0.0
    vertex 66.59013863135043 72.87410266724179 0.0
  endloop
endfacet
facet normal 0.0 0.0 -1.0
  outer loop
    vertex 66.59013863135043 72.87410266724179 0.0
    vertex 66.59013863135041 81.53435670508617 0.0
    vertex 67.79604340583782 82.03385881760933 0.0
  endloop
endfacet
facet normal 0.0 0.0 -1.0
  outer loop
    vertex 66.59013863135043 72.87410266724179 0.0
    vertex 67.79604340583782 82.03385881760933 0.0
    vertex 67.79604340583782 72.37460055471863 0.0
  endloop
endfacet
facet normal 0.0 0.0 -1.0
  outer loop
    vertex 67.79604340583782 72.37460055471863 0.0
    vertex 67.79604340583782 82.03385881760933 0.0
    vertex 69.09013863135043 82.20422968616397 0.0
  endloop
endfacet
facet normal 0.0 0.0 -1.0
  outer loop
    vertex 67.79604340583782 72.37460055471863 0.0
    vertex 69.09013863135043 82.20422968616397 0.0
    vertex 69.09013863135043 72.20422968616397 0.0
  endloop
endfacet
facet normal 0.0 0.0 -1.0
  outer loop
    vertex 69.09013863135043 72.20422968616397 0.0
    vertex 69.09013863135043 82.20422968616397 0.0
    vertex 70.38423385686302 82.03385881760933 0.0
  endloop
endfacet
facet normal 0.0 0.0 -1.0
  outer loop
    vertex 69.09013863135043 72.20422968616397 0.0
    vertex 70.38423385686302 82.03385881760933 0.0
    vertex 70.38423385686303 72.37460055471864 0.0
  endloop
endfacet
facet normal 0.0 0.0 -1.0
  outer loop
    vertex 70.38423385686303 72.37460055471864 0.0
    vertex 70.38423385686302 82.03385881760933 0.0
    vertex 71.59013863135041 81.53435670508617 0.0
  endloop
endfacet
facet normal 0.0 0.0 -1.0
  outer loop
    vertex 70.38423385686303 72.37460055471864 0.0
    vertex 71.59013863135041 81.53435670508617 0.0
    vertex 71.59013863135043 72.87410266724179 0.0
  endloop
endfacet
facet normal 0.0 0.0 -1.0
  outer loop
    vertex 71.59013863135043 72.87410266724179 0.0
    vertex 71.59013863135041 81.53435670508617 0.0
    vertex 72.62567253728315 80.73976359209672 0.0
  endloop
endfacet
facet normal 0.0 0.0 -1.0
  outer loop
    vertex 71.59013863135043 72.87410266724179 0.0
    vertex 72.62567253728315 80.73976359209672 0.0
    vertex 72.62567253728315 73.66869578023123 0.0
  endloop
endfacet
facet normal 0.0 0.0 -1.0
  outer loop
    vertex 72.62567253728315 73.66869578023123 0.0
    vertex 72.62567253728315 80.73976359209672 0.0
    vertex 73.42026565027261 79.70422968616398 0.0
  endloop
endfacet
facet normal 0.0 0.0 -1.0
  outer loop
    vertex 72.62567253728315 73.66869578023123 0.0
    vertex 73.42026565027261 79.70422968616398 0.0
    vertex 73.42026565027263 74.70422968616398 0.0
  endloop
endfacet
facet normal 0.0 0.0 -1.0
  outer loop
    vertex 73.42026565027263 74.70422968616398 0.0
    vertex 73.42026565027261 79.70422968616398 0.0
    vertex 73.91976776279576 78.49832491167658 0.0
  endloop
endfacet
facet normal 0.0 0.0 -1.0
  outer loop
    vertex 73.42026565027263 74.70422968616398 0.0
    vertex 73.91976776279576 78.49832491167658 0.0
    vertex 73.91976776279577 75.91013446065136 0.0
  endloop
endfacet
facet normal 0.0 0.0 -1.0
  outer loop
    vertex 73.91976776279577 75.91013446065136 0.0
    vertex 73.91976776279576 78.49832491167658 0.0
    vertex 74.09013863135043 77.20422968616397 0.0
  endloop
endfacet
facet normal -0.0 -0.0 1.0
  outer loop
    vertex 64.26050949990507 75.91013446065136 1.9999999999999998
    vertex 64.26050949990507 78.49832491167658 1.9999999999999998
    vertex 64.09013863135041 77.20422968616397 1.9999999999999998
  endloop
endfacet
facet normal -0.0 -0.0 1.0
  outer loop
    vertex 64.26050949990507 78.49832491167658 1.9999999999999998
    vertex 64.26050949990507 75.91013446065136 1.9999999999999998
    vertex 64.76001161242823 74.70422968616397 1.9999999999999998
  endloop
endfacet
facet normal -0.0 -0.0 1.0
  outer loop
    vertex 64.26050949990507 78.49832491167658 1.9999999999999998
    vertex 64.76001161242823 74.70422968616397 1.9999999999999998
    vertex 64.76001161242823 79.70422968616397 1.9999999999999998
  endloop
endfacet
facet normal -0.0 -0.0 1.0
  outer loop
    vertex 64.76001161242823 79.70422968616397 1.9999999999999998
    vertex 64.76001161242823 74.70422968616397 1.9999999999999998
    vertex 65.55460472541769 73.66869578023123 1.9999999999999998
  endloop
endfacet
facet normal -0.0 -0.0 1.0
  outer loop
    vertex 64.76001161242823 79.70422968616397 1.9999999999999998
    vertex 65.55460472541769 73.66869578023123 1.9999999999999998
    vertex 65.55460472541769 80.73976359209671 1.9999999999999998
  endloop
endfacet
facet normal -0.0 -0.0 1.0
  outer loop
    vertex 65.55460472541769 80.73976359209671 1.9999999999999998
    vertex 65.55460472541769 73.66869578023123 1.9999999999999998
    vertex 66.59013863135043 72.87410266724179 1.9999999999999998
  endloop
endfacet
facet normal -0.0 -0.0 1.0
  outer loop
    vertex 65.55460472541769 80.73976359209671 1.9999999999999998
    vertex 66.59013863135043 72.87410266724179 1.9999999999999998
    vertex 66.59013863135041 81.53435670508617 1.9999999999999998
  endloop
endfacet
facet normal -0.0 -0.0 1.0
  outer loop
    vertex 66.59013863135041 81.53435670508617 1.9999999999999998
    vertex 66.59013863135043 72.87410266724179 1.9999999999999998
    vertex 67.79604340583782 82.03385881760933 1.9999999999999998
  endloop
endfacet
facet normal -0.0 -0.0 1.0
  outer loop
    vertex 67.79604340583782 82.03385881760933 1.9999999999999998
    vertex 66.59013863135043 72.87410266724179 1.9999999999999998
    vertex 67.79604340583782 72.37460055471863 1.9999999999999998
  endloop
endfacet
facet normal -0.0 -0.0 1.0
  outer loop
    vertex 67.79604340583782 82.03385881760933 1.9999999999999998
    vertex 67.79604340583782 72.37460055471863 1.9999999999999998
    vertex 69.09013863135043 72.20422968616397 1.9999999999999998
  endloop
endfacet
facet normal -0.0 -0.0 1.0
  outer loop
    vertex 67.79604340583782 82.03385881760933 1.9999999999999998
    vertex 69.09013863135043 72.20422968616397 1.9999999999999998
    vertex 69.09013863135043 82.20422968616397 1.9999999999999998
  endloop
endfacet
facet normal -0.0 -0.0 1.0
  outer loop
    vertex 69.09013863135043 82.20422968616397 1.9999999999999998
    vertex 69.09013863135043 72.20422968616397 1.9999999999999998
    vertex 70.38423385686303 72.37460055471864 1.9999999999999998
  endloop
endfacet
facet normal -0.0 -0.0 1.0
  outer loop
    vertex 69.09013863135043 82.20422968616397 1.9999999999999998
    vertex 70.38423385686303 72.37460055471864 1.9999999999999998
    vertex 70.38423385686302 82.03385881760933 1.9999999999999998
  endloop
endfacet
facet normal -0.0 -0.0 1.0
  outer loop
    vertex 70.38423385686302 82.03385881760933 1.9999999999999998
    vertex 70.38423385686303 72.37460055471864 1.9999999999999998
    vertex 71.59013863135041 81.53435670508617 1.9999999999999998
  endloop
endfacet
facet normal -0.0 -0.0 1.0
  outer loop
    vertex 71.59013863135041 81.53435670508617 1.9999999999999998
    vertex 70.38423385686303 72.37460055471864 1.9999999999999998
    vertex 71.59013863135043 72.87410266724179 1.9999999999999998
  endloop
endfacet
facet normal -0.0 -0.0 1.0
  outer loop
    vertex 71.59013863135041 81.53435670508617 1.9999999999999998
    vertex 71.59013863135043 72.87410266724179 1.9999999999999998
    vertex 72.62567253728315 80.73976359209672 1.9999999999999998
  endloop
endfacet
facet normal -0.0 -0.0 1.0
  outer loop
    vertex 72.62567253728315 80.73976359209672 1.9999999999999998
    vertex 71.59013863135043 72.87410266724179 1.9999999999999998
    vertex 72.62567253728315 73.66869578023123 1.9999999999999998
  endloop
endfacet
facet normal -0.0 -0.0 1.0
  outer loop
    vertex 72.62567253728315 80.73976359209672 1.9999999999999998
    vertex 72.62567253728315 73.66869578023123 1.9999999999999998
    vertex 73.42026565027263 74.70422968616398 1.9999999999999998
  endloop
endfacet
facet normal -0.0 -0.0 1.0
  outer loop
    vertex 72.62567253728315 80.73976359209672 1.9999999999999998
    vertex 73.42026565027263 74.70422968616398 1.9999999999999998
    vertex 73.42026565027261 79.70422968616398 1.9999999999999998
  endloop
endfacet
facet normal -0.0 -0.0 1.0
  outer loop
    vertex 73.42026565027261 79.70422968616398 1.9999999999999998
    vertex 73.42026565027263 74.70422968616398 1.9999999999999998
    vertex 73.91976776279576 78.49832491167658 1.9999999999999998
  endloop
endfacet
facet normal -0.0 -0.0 1.0
  outer loop
    vertex 73.91976776279576 78.49832491167658 1.9999999999999998
    vertex 73.42026565027263 74.70422968616398 1.9999999999999998
    vertex 73.91976776279577 75.91013446065136 1.9999999999999998
  endloop
endfacet
facet normal -0.0 -0.0 1.0
  outer loop
    vertex 73.91976776279576 78.49832491167658 1.9999999999999998
    vertex 73.91976776279577 75.91013446065136 1.9999999999999998
    vertex 74.09013863135043 77.20422968616397 1.9999999999999998
  endloop
endfacet
facet normal -0.9914448613738109 0.13052619222004763 0.0
  outer loop
    vertex 64.26050949990507 78.49832491167658 1.9999999999999998
    vertex 64.09013863135041 77.20422968616397 0.0
    vertex 64.09013863135041 77.20422968616397 1.9999999999999998
  endloop
endfacet
facet normal -0.9914448613738109 0.13052619222004763 0.0
  outer loop
    vertex 64.09013863135041 77.20422968616397 0.0
    vertex 64.26050949990507 78.49832491167658 1.9999999999999998
    vertex 64.26050949990507 78.49832491167658 0.0
  endloop
endfacet
facet normal -0.9238795325112836 0.3826834323650976 0.0
  outer loop
    vertex 64.76001161242823 79.70422968616397 1.9999999999999998
    vertex 64.26050949990507 78.49832491167658 0.0
    vertex 64.26050949990507 78.49832491167658 1.9999999999999998
  endloop
endfacet
facet normal -0.9238795325112836 0.3826834323650976 0.0
  outer loop
    vertex 64.26050949990507 78.49832491167658 0.0
    vertex 64.76001161242823 79.70422968616397 1.9999999999999998
    vertex 64.76001161242823 79.70422968616397 0.0
  endloop
endfacet
facet normal -0.7933533402912362 0.6087614290087197 0.0
  outer loop
    vertex 65.55460472541769 80.73976359209671 1.9999999999999998
    vertex 64.76001161242823 79.70422968616397 0.0
    vertex 64.76001161242823 79.70422968616397 1.9999999999999998
  endloop
endfacet
facet normal -0.7933533402912362 0.6087614290087197 0.0
  outer loop
    vertex 64.76001161242823 79.70422968616397 0.0
    vertex 65.55460472541769 80.73976359209671 1.9999999999999998
    vertex 65.55460472541769 80.73976359209671 0.0
  endloop
endfacet
facet normal -0.6087614290087238 0.793353340291233 0.0
  outer loop
    vertex 65.55460472541769 80.73976359209671 1.9999999999999998
    vertex 66.59013863135041 81.53435670508617 0.0
    vertex 65.55460472541769 80.73976359209671 0.0
  endloop
endfacet
facet normal -0.6087614290087238 0.793353340291233 0.0
  outer loop
    vertex 66.59013863135041 81.53435670508617 0.0
    vertex 65.55460472541769 80.73976359209671 1.9999999999999998
    vertex 66.59013863135041 81.53435670508617 1.9999999999999998
  endloop
endfacet
facet normal -0.3826834323650946 0.9238795325112849 0.0
  outer loop
    vertex 66.59013863135041 81.53435670508617 1.9999999999999998
    vertex 67.79604340583782 82.03385881760933 0.0
    vertex 66.59013863135041 81.53435670508617 0.0
  endloop
endfacet
facet normal -0.3826834323650946 0.9238795325112849 0.0
  outer loop
    vertex 67.79604340583782 82.03385881760933 0.0
    vertex 66.59013863135041 81.53435670508617 1.9999999999999998
    vertex 67.79604340583782 82.03385881760933 1.9999999999999998
  endloop
endfacet
facet normal -0.13052619222004763 0.9914448613738109 0.0
  outer loop
    vertex 67.79604340583782 82.03385881760933 1.9999999999999998
    vertex 69.09013863135043 82.20422968616397 0.0
    vertex 67.79604340583782 82.03385881760933 0.0
  endloop
endfacet
facet normal -0.13052619222004763 0.9914448613738109 0.0
  outer loop
    vertex 69.09013863135043 82.20422968616397 0.0
    vertex 67.79604340583782 82.03385881760933 1.9999999999999998
    vertex 69.09013863135043 82.20422968616397 1.9999999999999998
  endloop
endfacet
facet normal 0.13052619222004763 0.9914448613738109 0.0
  outer loop
    vertex 69.09013863135043 82.20422968616397 1.9999999999999998
    vertex 70.38423385686302 82.03385881760933 0.0
    vertex 69.09013863135043 82.20422968616397 0.0
  endloop
endfacet
facet normal 0.13052619222004763 0.9914448613738109 0.0
  outer loop
    vertex 70.38423385686302 82.03385881760933 0.0
    vertex 69.09013863135043 82.20422968616397 1.9999999999999998
    vertex 70.38423385686302 82.03385881760933 1.9999999999999998
  endloop
endfacet
facet normal 0.3826834323650976 0.9238795325112836 0.0
  outer loop
    vertex 70.38423385686302 82.03385881760933 1.9999999999999998
    vertex 71.59013863135041 81.53435670508617 0.0
    vertex 70.38423385686302 82.03385881760933 0.0
  endloop
endfacet
facet normal 0.3826834323650976 0.9238795325112836 0.0
  outer loop
    vertex 71.59013863135041 81.53435670508617 0.0
    vertex 70.38423385686302 82.03385881760933 1.9999999999999998
    vertex 71.59013863135041 81.53435670508617 1.9999999999999998
  endloop
endfacet
facet normal 0.6087614290087142 0.7933533402912402 0.0
  outer loop
    vertex 71.59013863135041 81.53435670508617 1.9999999999999998
    vertex 72.62567253728315 80.73976359209672 0.0
    vertex 71.59013863135041 81.53435670508617 0.0
  endloop
endfacet
facet normal 0.6087614290087142 0.7933533402912402 0.0
  outer loop
    vertex 72.62567253728315 80.73976359209672 0.0
    vertex 71.59013863135041 81.53435670508617 1.9999999999999998
    vertex 72.62567253728315 80.73976359209672 1.9999999999999998
  endloop
endfacet
facet normal 0.7933533402912362 0.6087614290087197 0.0
  outer loop
    vertex 72.62567253728315 80.73976359209672 0.0
    vertex 73.42026565027261 79.70422968616398 1.9999999999999998
    vertex 73.42026565027261 79.70422968616398 0.0
  endloop
endfacet
facet normal 0.7933533402912362 0.6087614290087197 0.0
  outer loop
    vertex 73.42026565027261 79.70422968616398 1.9999999999999998
    vertex 72.62567253728315 80.73976359209672 0.0
    vertex 72.62567253728315 80.73976359209672 1.9999999999999998
  endloop
endfacet
facet normal 0.9238795325112878 0.3826834323650872 0.0
  outer loop
    vertex 73.42026565027261 79.70422968616398 0.0
    vertex 73.91976776279576 78.49832491167658 1.9999999999999998
    vertex 73.91976776279576 78.49832491167658 0.0
  endloop
endfacet
facet normal 0.9238795325112878 0.3826834323650872 0.0
  outer loop
    vertex 73.91976776279576 78.49832491167658 1.9999999999999998
    vertex 73.42026565027261 79.70422968616398 0.0
    vertex 73.42026565027261 79.70422968616398 1.9999999999999998
  endloop
endfacet
facet normal 0.9914448613738099 0.13052619222005613 0.0
  outer loop
    vertex 73.91976776279576 78.49832491167658 0.0
    vertex 74.09013863135043 77.20422968616397 1.9999999999999998
    vertex 74.09013863135043 77.20422968616397 0.0
  endloop
endfacet
facet normal 0.9914448613738099 0.13052619222005613 0.0
  outer loop
    vertex 74.09013863135043 77.20422968616397 1.9999999999999998
    vertex 73.91976776279576 78.49832491167658 0.0
    vertex 73.91976776279576 78.49832491167658 1.9999999999999998
  endloop
endfacet
facet normal 0.9914448613738109 -0.13052619222004763 0.0
  outer loop
    vertex 74.09013863135043 77.20422968616397 0.0
    vertex 73.91976776279577 75.91013446065136 1.9999999999999998
    vertex 73.91976776279577 75.91013446065136 0.0
  endloop
endfacet
facet normal 0.9914448613738109 -0.13052619222004763 0.0
  outer loop
    vertex 73.91976776279577 75.91013446065136 1.9999999999999998
    vertex 74.09013863135043 77.20422968616397 0.0
    vertex 74.09013863135043 77.20422968616397 1.9999999999999998
  endloop
endfacet
facet normal 0.9238795325112866 -0.3826834323650902 0.0
  outer loop
    vertex 73.91976776279577 75.91013446065136 0.0
    vertex 73.42026565027263 74.70422968616398 1.9999999999999998
    vertex 73.42026565027263 74.70422968616398 0.0
  endloop
endfacet
facet normal 0.9238795325112866 -0.3826834323650902 0.0
  outer loop
    vertex 73.42026565027263 74.70422968616398 1.9999999999999998
    vertex 73.91976776279577 75.91013446065136 0.0
    vertex 73.91976776279577 75.91013446065136 1.9999999999999998
  endloop
endfacet
facet normal 0.793353340291232 -0.6087614290087251 0.0
  outer loop
    vertex 73.42026565027263 74.70422968616398 0.0
    vertex 72.62567253728315 73.66869578023123 1.9999999999999998
    vertex 72.62567253728315 73.66869578023123 0.0
  endloop
endfacet
facet normal 0.793353340291232 -0.6087614290087251 0.0
  outer loop
    vertex 72.62567253728315 73.66869578023123 1.9999999999999998
    vertex 73.42026565027263 74.70422968616398 0.0
    vertex 73.42026565027263 74.70422968616398 1.9999999999999998
  endloop
endfacet
facet normal 0.6087614290087238 -0.793353340291233 0.0
  outer loop
    vertex 72.62567253728315 73.66869578023123 1.9999999999999998
    vertex 71.59013863135043 72.87410266724179 0.0
    vertex 72.62567253728315 73.66869578023123 0.0
  endloop
endfacet
facet normal 0.6087614290087238 -0.793353340291233 0.0
  outer loop
    vertex 71.59013863135043 72.87410266724179 0.0
    vertex 72.62567253728315 73.66869578023123 1.9999999999999998
    vertex 71.59013863135043 72.87410266724179 1.9999999999999998
  endloop
endfacet
facet normal 0.3826834323650902 -0.9238795325112866 0.0
  outer loop
    vertex 71.59013863135043 72.87410266724179 1.9999999999999998
    vertex 70.38423385686303 72.37460055471864 0.0
    vertex 71.59013863135043 72.87410266724179 0.0
  endloop
endfacet
facet normal 0.3826834323650902 -0.9238795325112866 0.0
  outer loop
    vertex 70.38423385686303 72.37460055471864 0.0
    vertex 71.59013863135043 72.87410266724179 1.9999999999999998
    vertex 70.38423385686303 72.37460055471864 1.9999999999999998
  endloop
endfacet
facet normal 0.13052619222005502 -0.99144486137381 0.0
  outer loop
    vertex 70.38423385686303 72.37460055471864 1.9999999999999998
    vertex 69.09013863135043 72.20422968616397 0.0
    vertex 70.38423385686303 72.37460055471864 0.0
  endloop
endfacet
facet normal 0.13052619222005502 -0.99144486137381 0.0
  outer loop
    vertex 69.09013863135043 72.20422968616397 0.0
    vertex 70.38423385686303 72.37460055471864 1.9999999999999998
    vertex 69.09013863135043 72.20422968616397 1.9999999999999998
  endloop
endfacet
facet normal -0.13052619222004763 -0.9914448613738109 -0.0
  outer loop
    vertex 69.09013863135043 72.20422968616397 1.9999999999999998
    vertex 67.79604340583782 72.37460055471863 0.0
    vertex 69.09013863135043 72.20422968616397 0.0
  endloop
endfacet
facet normal -0.13052619222004763 -0.9914448613738109 -0.0
  outer loop
    vertex 67.79604340583782 72.37460055471863 0.0
    vertex 69.09013863135043 72.20422968616397 1.9999999999999998
    vertex 67.79604340583782 72.37460055471863 1.9999999999999998
  endloop
endfacet
facet normal -0.3826834323650976 -0.9238795325112836 -0.0
  outer loop
    vertex 67.79604340583782 72.37460055471863 1.9999999999999998
    vertex 66.59013863135043 72.87410266724179 0.0
    vertex 67.79604340583782 72.37460055471863 0.0
  endloop
endfacet
facet normal -0.3826834323650976 -0.9238795325112836 -0.0
  outer loop
    vertex 66.59013863135043 72.87410266724179 0.0
    vertex 67.79604340583782 72.37460055471863 1.9999999999999998
    vertex 66.59013863135043 72.87410266724179 1.9999999999999998
  endloop
endfacet
facet normal -0.6087614290087197 -0.7933533402912362 -0.0
  outer loop
    vertex 66.59013863135043 72.87410266724179 1.9999999999999998
    vertex 65.55460472541769 73.66869578023123 0.0
    vertex 66.59013863135043 72.87410266724179 0.0
  endloop
endfacet
facet normal -0.6087614290087197 -0.7933533402912362 -0.0
  outer loop
    vertex 65.55460472541769 73.66869578023123 0.0
    vertex 66.59013863135043 72.87410266724179 1.9999999999999998
    vertex 65.55460472541769 73.66869578023123 1.9999999999999998
  endloop
endfacet
facet normal -0.793353340291233 -0.6087614290087238 -0.0
  outer loop
    vertex 64.76001161242823 74.70422968616397 1.9999999999999998
    vertex 65.55460472541769 73.66869578023123 0.0
    vertex 65.55460472541769 73.66869578023123 1.9999999999999998
  endloop
endfacet
facet normal -0.793353340291233 -0.6087614290087238 -0.0
  outer loop
    vertex 65.55460472541769 73.66869578023123 0.0
    vertex 64.76001161242823 74.70422968616397 1.9999999999999998
    vertex 64.76001161242823 74.70422968616397 0.0
  endloop
endfacet
facet normal -0.9238795325112849 -0.3826834323650946 -0.0
  outer loop
    vertex 64.26050949990507 75.91013446065136 1.9999999999999998
    vertex 64.76001161242823 74.70422968616397 0.0
    vertex 64.76001161242823 74.70422968616397 1.9999999999999998
  endloop
endfacet
facet normal -0.9238795325112849 -0.3826834323650946 -0.0
  outer loop
    vertex 64.76001161242823 74.70422968616397 0.0
    vertex 64.26050949990507 75.91013446065136 1.9999999999999998
    vertex 64.26050949990507 75.91013446065136 0.0
  endloop
endfacet
facet normal -0.9914448613738109 -0.13052619222004763 -0.0
  outer loop
    vertex 64.09013863135041 77.20422968616397 1.9999999999999998
    vertex 64.26050949990507 75.91013446065136 0.0
    vertex 64.26050949990507 75.91013446065136 1.9999999999999998
  endloop
endfacet
facet normal -0.9914448613738109 -0.13052619222004763 -0.0
  outer loop
    vertex 64.26050949990507 75.91013446065136 0.0
    vertex 64.09013863135041 77.20422968616397 1.9999999999999998
    vertex 64.09013863135041 77.20422968616397 0.0
  endloop
endfacet
endsolid Untitled-5874df0a
